<svg xmlns="http://www.w3.org/2000/svg" version="1.1" xmlns:xlink="http://www.w3.org/1999/xlink" xmlns:svgjs="http://svgjs.dev/svgjs" width="1500" height="1500" viewBox="0 0 1500 1500"><rect width="1500" height="1500" fill="#ffffff"></rect><g transform="matrix(0.6666666666666666,0,0,0.6666666666666666,249.39393939393938,536.1022438338509)"><svg viewBox="0 0 396 169" data-background-color="#ffffff" preserveAspectRatio="xMidYMid meet" height="640" width="1500" xmlns="http://www.w3.org/2000/svg" xmlns:xlink="http://www.w3.org/1999/xlink"><g id="tight-bounds" transform="matrix(1,0,0,1,0.2400000000000091,0.22356435643563088)"><svg viewBox="0 0 395.52 168.55287128712874" height="168.55287128712874" width="395.52"><g><svg viewBox="0 0 395.52 168.55287128712874" height="168.55287128712874" width="395.52"><g><svg viewBox="0 0 395.52 168.55287128712874" height="168.55287128712874" width="395.52"><g><svg viewBox="0 0 395.52 168.55287128712874" height="168.55287128712874" width="395.52"><g id="textblocktransform"><svg viewBox="0 0 395.52 168.55287128712874" height="168.55287128712874" width="395.52" id="textblock"><g><svg viewBox="0 0 395.52 168.55287128712874" height="168.55287128712874" width="395.52"><g transform="matrix(1,0,0,1,0,0)"><svg width="395.52" viewBox="0.25 -37.55 121.19 51.65" height="168.55287128712874" data-palette-color="#e83d95"><path d="M11.15 1.3L11.15 1.3Q8.3 1.3 5.8 0.03 3.3-1.25 2-3.85L2-3.85Q1.2-5.35 1.2-7L1.2-7Q1.2-8 1.68-8.88 2.15-9.75 3.25-9.75L3.25-9.75Q4-9.75 5.45-9.25 6.9-8.75 8.68-7.98 10.45-7.2 12.23-6.35 14-5.5 15.45-4.75 16.9-4 17.7-3.6L17.7-3.6Q19.3-6.05 20.55-9.1 21.8-12.15 22.88-15.45 23.95-18.75 25.1-21.98 26.25-25.2 27.7-28.05 29.15-30.9 31.15-33L31.15-33Q27.65-33.45 24.2-33.45L24.2-33.45Q22.05-33.45 19.35-33.23 16.65-33 13.8-32.38 10.95-31.75 8.4-30.65 5.85-29.55 4.03-27.85 2.2-26.15 1.55-23.65L1.55-23.65Q1.4-23 1.4-22.3L1.4-22.3Q1.4-21.05 1.9-19.95 2.4-18.85 3.65-18.45L3.65-18.45 3.8-18.45Q4.2-18.45 4.58-18.53 4.95-18.6 5.3-18.6L5.3-18.6Q5.35-18.6 5.5-18.57 5.65-18.55 5.65-18.45L5.65-18.45Q5.65-18.1 5.1-17.9 4.55-17.7 4.3-17.7L4.3-17.7Q3.45-17.7 2.85-18.1 2.25-18.5 1.9-18.5L1.9-18.5 1.75-18.5Q1.65-18.4 1.6-18.25 1.55-18.1 1.35-18.1L1.35-18.1Q1.05-18.1 0.8-18.63 0.55-19.15 0.4-19.78 0.25-20.4 0.25-20.65L0.25-20.65Q0.25-21.2 0.33-21.78 0.4-22.35 0.5-22.9L0.5-22.9Q1.2-25.85 3.08-28 4.95-30.15 7.58-31.6 10.2-33.05 13.23-33.9 16.25-34.75 19.28-35.13 22.3-35.5 24.9-35.5L24.9-35.5Q27-35.5 29.1-35.35 31.2-35.2 33.25-34.8L33.25-34.8Q34.95-35.95 36.8-36.75 38.65-37.55 40.7-37.55L40.7-37.55Q41.1-37.55 41.45-37.5 41.8-37.45 42.15-37.3L42.15-37.3Q42.4-37.25 43-36.93 43.6-36.6 43.6-36.3L43.6-36.3Q43.6-36 43.38-36.02 43.15-36.05 43.15-35.75L43.15-35.75Q43.15-35.4 43.5-34.83 43.85-34.25 43.85-33.45L43.85-33.45Q43.85-33.15 43.65-32.58 43.45-32 43.05-32L43.05-32Q42.9-32 42.9-32.3L42.9-32.3Q42.9-32.7 43.03-33.15 43.15-33.6 43.15-34L43.15-34Q43.15-34.1 43.05-34.35 42.95-34.6 42.9-34.7L42.9-34.7Q42.4-35.65 41.28-36.05 40.15-36.45 39.15-36.45L39.15-36.45Q37.9-36.45 36.95-35.8 36-35.15 35.1-34.4L35.1-34.4Q38.05-33.6 40.75-31.98 43.45-30.35 45.58-28.05 47.7-25.75 48.95-22.93 50.2-20.1 50.2-16.85L50.2-16.85Q50.2-13.8 48.98-11.15 47.75-8.5 45.63-6.38 43.5-4.25 40.83-2.73 38.15-1.2 35.25-0.4 32.35 0.4 29.55 0.4L29.55 0.4Q26.65 0.4 23.83-0.18 21-0.75 18.3-1.75L18.3-1.75Q16.9-0.35 15 0.48 13.1 1.3 11.15 1.3ZM29.55-0.85L29.55-0.85Q33.1-0.85 36.35-1.9 39.6-2.95 42.18-5 44.75-7.05 46.23-10 47.7-12.95 47.7-16.75L47.7-16.75Q47.7-19.75 46.48-22.33 45.25-24.9 43.2-27 41.15-29.1 38.55-30.53 35.95-31.95 33.25-32.6L33.25-32.6Q32.25-31.3 31.3-29.38 30.35-27.45 29.48-25.33 28.6-23.2 27.88-21.13 27.15-19.05 26.55-17.45L26.55-17.45Q25.2-13.6 23.5-9.95 21.8-6.3 19.4-2.95L19.4-2.95Q21.8-2.05 24.38-1.45 26.95-0.85 29.55-0.85ZM12 0.2L12 0.2Q13.45 0.2 14.65-0.6 15.85-1.4 16.75-2.45L16.75-2.45Q15.8-3 14.18-3.9 12.55-4.8 10.75-5.7 8.95-6.6 7.33-7.2 5.7-7.8 4.65-7.8L4.65-7.8Q4.1-7.8 3.68-7.55 3.25-7.3 3.25-6.6L3.25-6.6Q3.25-5.55 4.13-4.4 5-3.25 6.18-2.3 7.35-1.35 8.2-0.9L8.2-0.9Q9.7-0.1 11.45 0.15L11.45 0.15Q11.65 0.2 12 0.2ZM46.85 14.1L46.85 14.1Q46.6 14.1 45.72 14 44.85 13.9 44.07 13.68 43.3 13.45 43.3 13.15L43.3 13.15Q43.3 13.15 43.3 13.1 43.3 13.05 43.35 13.05L43.35 13.05Q43.4 13.05 43.4 13.08 43.4 13.1 43.4 13.1L43.4 13.1 43.75 13.15Q43.55 12.7 43.55 12L43.55 12Q43.55 11.65 43.62 11.13 43.7 10.6 43.85 10.25L43.85 10.25Q43.9 10.15 44.2 9.65 44.5 9.15 44.82 8.7 45.15 8.25 45.2 8.25L45.2 8.25 45.2 8.3Q45.2 8.35 44.85 9.03 44.5 9.7 44.5 10.4L44.5 10.4Q44.5 11.2 45.07 11.9 45.65 12.6 46.5 13.03 47.35 13.45 48.1 13.45L48.1 13.45Q49.55 13.45 50.9 12.25 52.25 11.05 53.5 9.1 54.75 7.15 55.82 4.8 56.9 2.45 57.75 0.1 58.6-2.25 59.25-4.25 59.9-6.25 60.25-7.4L60.25-7.4Q60.25-7.45 60.27-7.48 60.3-7.5 60.3-7.55L60.3-7.55Q60.3-7.7 60.2-7.7L60.2-7.7Q60.15-7.7 60.05-7.6L60.05-7.6Q58.5-5.55 56.87-3.58 55.25-1.6 53-0.3L53-0.3Q52.65-0.1 52.2 0.1 51.75 0.3 51.35 0.3L51.35 0.3Q50.4 0.3 50.4-1.3L50.4-1.3Q50.4-2.4 51.07-4.08 51.75-5.75 52.67-7.7 53.6-9.65 54.27-11.53 54.95-13.4 54.95-14.9L54.95-14.9Q54.95-15.1 54.87-15.35 54.8-15.6 54.55-15.6L54.55-15.6Q54.2-15.6 53.6-15.13 53-14.65 52.35-13.95 51.7-13.25 51.22-12.6 50.75-11.95 50.6-11.6L50.6-11.6Q50.4-11.7 50.4-11.85L50.4-11.85Q50.4-12.3 51.27-13.28 52.15-14.25 53.35-15.33 54.55-16.4 55.65-17.15 56.75-17.9 57.2-17.9L57.2-17.9Q57.75-17.9 57.92-17.15 58.1-16.4 58.1-16L58.1-16Q58.1-15.05 57.67-13.63 57.25-12.2 56.6-10.58 55.95-8.95 55.32-7.53 54.7-6.1 54.3-5.15L54.3-5.15Q54.2-4.8 53.87-4.03 53.55-3.25 53.55-2.8L53.55-2.8Q53.55-2.05 54.1-2.05L54.1-2.05Q54.65-2.05 55.42-2.73 56.2-3.4 56.55-3.8L56.55-3.8Q58.7-6.15 60.27-9.1 61.85-12.05 62.85-15.1L62.85-15.1Q63-15.5 63.02-15.68 63.05-15.85 63.45-16.1L63.45-16.1Q63.6-16.2 64.37-16.65 65.15-17.1 65.9-17.53 66.65-17.95 66.65-17.95L66.65-17.95Q66.7-17.95 66.7-17.85L66.7-17.85Q66.7-17.7 66.55-17.5 66.4-17.3 66.3-17.2L66.3-17.2Q65.9-16.55 65.47-15.45 65.05-14.35 64.67-13.25 64.3-12.15 64.05-11.4L64.05-11.4Q63.05-8.4 62.1-5.4 61.15-2.4 60.1 0.55L60.1 0.55Q59.35 2.65 58.12 5 56.9 7.35 55.25 9.43 53.6 11.5 51.5 12.8 49.4 14.1 46.85 14.1ZM64 0.65L64 0.65Q63.95 0.65 63.95 0.6L63.95 0.6Q63.95 0.4 64.12 0.2 64.3 0 64.34-0.1L64.34-0.1Q64.7-0.65 65.17-1.98 65.64-3.3 66.12-4.98 66.59-6.65 67.02-8.38 67.45-10.1 67.8-11.55 68.14-13 68.3-13.75L68.3-13.75Q68.39-14.15 68.5-14.8 68.59-15.45 68.8-16.1 69-16.75 69.25-16.95L69.25-16.95Q69.75-17.35 70.62-17.65 71.5-17.95 72.45-18.13 73.39-18.3 74-18.3L74-18.3Q74.09-18.3 74.25-18.2 74.39-18.1 74.45-18L74.45-18 74.45-17.85Q74.45-17.7 74.34-17.73 74.25-17.75 74.14-17.75L74.14-17.75Q73.05-17.75 72.2-16.53 71.34-15.3 70.75-13.53 70.14-11.75 69.75-10.1 69.34-8.45 69.14-7.6L69.14-7.6Q70.75-10.35 72.82-12.88 74.9-15.4 77.7-16.95L77.7-16.95Q78.05-17.15 78.5-17.38 78.95-17.6 79.3-17.6L79.3-17.6Q79.95-17.6 80.09-17.03 80.25-16.45 80.25-15.95L80.25-15.95Q80.25-15.3 79.8-14.05 79.34-12.8 78.77-11.58 78.2-10.35 77.9-9.65L77.9-9.65Q77.59-8.85 77.2-7.6 76.8-6.35 76.5-5.1 76.2-3.85 76.2-3L76.2-3Q76.2-2.65 76.3-2.2 76.4-1.75 76.84-1.75L76.84-1.75Q77.09-1.75 77.27-1.85 77.45-1.95 77.65-2.05L77.65-2.05Q78.8-2.7 79.87-3.83 80.95-4.95 81.84-6.28 82.75-7.6 83.34-8.7L83.34-8.7Q83.4-8.65 83.4-8.5L83.4-8.5Q83.4-8.2 83.05-7.63 82.7-7.05 82.25-6.4 81.8-5.75 81.42-5.25 81.05-4.75 81.05-4.65L81.05-4.65Q81-4.3 80.9-4.08 80.8-3.85 80.65-3.5L80.65-3.5Q80.05-2.9 78.92-2.02 77.8-1.15 76.62-0.48 75.45 0.2 74.55 0.2L74.55 0.2Q73.75 0.2 73.47-0.43 73.2-1.05 73.2-1.75L73.2-1.75Q73.2-3.1 73.75-4.98 74.3-6.85 75.05-8.72 75.8-10.6 76.3-11.9L76.3-11.9Q76.45-12.3 76.77-13.15 77.09-14 77.09-14.35L77.09-14.35Q77.09-14.6 77.02-14.9 76.95-15.2 76.55-15.2L76.55-15.2Q76.05-15.2 75.27-14.55 74.5-13.9 74.09-13.5L74.09-13.5Q71.95-11.1 70.39-8.18 68.84-5.25 67.8-2.15L67.8-2.15Q67.64-1.75 67.62-1.58 67.59-1.4 67.2-1.15L67.2-1.15Q67.05-1.05 66.27-0.6 65.5-0.15 64.77 0.25 64.05 0.65 64 0.65ZM84.04 0.2L84.04 0.2Q81.14 0.2 81.14-2.75L81.14-2.75Q81.14-4.95 82.04-7.48 82.94-10 84.39-12.33 85.84-14.65 87.44-16.1L87.44-16.1Q89.34-17.75 91.89-17.75L91.89-17.75Q92.49-17.75 93.37-17.6 94.24-17.45 94.89-17.03 95.54-16.6 95.54-15.8L95.54-15.8Q95.54-14.65 94.69-13.18 93.84-11.7 93.14-10.8L93.14-10.8Q93.39-10.75 93.77-10.65 94.14-10.55 94.14-10.25L94.14-10.25Q94.14-10.1 93.89-10.1L93.89-10.1Q93.44-10.1 92.99-10.2 92.54-10.3 92.09-10.3L92.09-10.3Q90.39-10.3 88.62-9.8 86.84-9.3 85.24-8.75L85.24-8.75Q84.74-7.55 84.37-6.1 83.99-4.65 83.99-3.35L83.99-3.35Q83.99-2.4 84.37-1.65 84.74-0.9 85.84-0.9L85.84-0.9Q87.19-0.9 88.62-1.68 90.04-2.45 91.37-3.68 92.69-4.9 93.74-6.25 94.79-7.6 95.39-8.7L95.39-8.7Q95.44-8.65 95.44-8.5L95.44-8.5Q95.44-8.05 94.89-7.28 94.34-6.5 93.77-5.75 93.19-5 93.09-4.65L93.09-4.65Q93.04-4.3 92.92-4.05 92.79-3.8 92.64-3.5L92.64-3.5Q91.79-2.65 90.22-1.78 88.64-0.9 86.97-0.35 85.29 0.2 84.04 0.2ZM85.94-10.35L85.94-10.35Q87.24-10.6 88.52-10.75 89.79-10.9 91.09-10.9L91.09-10.9Q91.49-10.9 91.89-10.9 92.29-10.9 92.69-10.85L92.69-10.85Q93.09-11.7 93.37-12.7 93.64-13.7 93.64-14.65L93.64-14.65Q93.64-15.4 93.34-16.18 93.04-16.95 92.04-16.95L92.04-16.95Q91.09-16.95 90.12-16.15 89.14-15.35 88.54-14.7L88.54-14.7Q87.74-13.75 87.12-12.63 86.49-11.5 85.94-10.35ZM94.84 0.4L94.84 0.4Q93.89 0.4 92.74 0.05 91.59-0.3 91.04-1.25L91.04-1.25 91.04-1.35Q91.04-1.6 91.67-2.13 92.29-2.65 92.99-3.18 93.69-3.7 93.89-3.95L93.89-3.95 94.24-4.05 94.34-3.85Q93.99-3.55 93.99-3.2L93.99-3.2Q93.99-2.45 94.57-1.95 95.14-1.45 95.92-1.2 96.69-0.95 97.29-0.95L97.29-0.95Q97.99-0.95 99.07-1.35 100.14-1.75 100.99-2.45 101.84-3.15 101.84-4L101.84-4Q101.84-5.3 101.04-6.25 100.24-7.2 99.19-8.05 98.14-8.9 97.34-9.85 96.54-10.8 96.54-12.05L96.54-12.05Q96.54-13.5 97.42-14.68 98.29-15.85 99.67-16.68 101.04-17.5 102.54-17.93 104.04-18.35 105.29-18.35L105.29-18.35Q105.49-18.35 106.19-18.28 106.89-18.2 107.52-18.03 108.14-17.85 108.14-17.55L108.14-17.55Q108.14-17.45 108.09-17.45L108.09-17.45 107.99-17.45 107.59-17.55Q107.74-17.2 107.74-16.7L107.74-16.7Q107.74-16.25 107.54-15.55 107.34-14.85 107.09-14.45L107.09-14.45Q107.04-14.35 106.59-13.8 106.14-13.25 105.69-12.75 105.24-12.25 105.14-12.25L105.14-12.25 105.09-12.35Q105.19-12.6 105.74-13.23 106.29-13.85 106.29-14.85L106.29-14.85Q106.29-15.9 105.34-16.57 104.39-17.25 103.39-17.25L103.39-17.25Q102.44-17.25 101.42-16.65 100.39-16.05 99.72-15.1 99.04-14.15 99.04-13.15L99.04-13.15Q99.04-12.25 99.92-11.28 100.79-10.3 101.92-9.33 103.04-8.35 103.92-7.4 104.79-6.45 104.79-5.6L104.79-5.6 104.79-5.45Q104.79-4.2 103.69-3.13 102.59-2.05 100.94-1.25 99.29-0.45 97.62-0.03 95.94 0.4 94.84 0.4ZM108.14 0.4L108.14 0.4Q107.19 0.4 106.04 0.05 104.89-0.3 104.34-1.25L104.34-1.25 104.34-1.35Q104.34-1.6 104.96-2.13 105.59-2.65 106.29-3.18 106.99-3.7 107.19-3.95L107.19-3.95 107.54-4.05 107.64-3.85Q107.29-3.55 107.29-3.2L107.29-3.2Q107.29-2.45 107.86-1.95 108.44-1.45 109.21-1.2 109.99-0.95 110.59-0.95L110.59-0.95Q111.29-0.95 112.36-1.35 113.44-1.75 114.29-2.45 115.14-3.15 115.14-4L115.14-4Q115.14-5.3 114.34-6.25 113.54-7.2 112.49-8.05 111.44-8.9 110.64-9.85 109.84-10.8 109.84-12.05L109.84-12.05Q109.84-13.5 110.71-14.68 111.59-15.85 112.96-16.68 114.34-17.5 115.84-17.93 117.34-18.35 118.59-18.35L118.59-18.35Q118.79-18.35 119.49-18.28 120.19-18.2 120.81-18.03 121.44-17.85 121.44-17.55L121.44-17.55Q121.44-17.45 121.39-17.45L121.39-17.45 121.29-17.45 120.89-17.55Q121.04-17.2 121.04-16.7L121.04-16.7Q121.04-16.25 120.84-15.55 120.64-14.85 120.39-14.45L120.39-14.45Q120.34-14.35 119.89-13.8 119.44-13.25 118.99-12.75 118.54-12.25 118.44-12.25L118.44-12.25 118.39-12.35Q118.49-12.6 119.04-13.23 119.59-13.85 119.59-14.85L119.59-14.85Q119.59-15.9 118.64-16.57 117.69-17.25 116.69-17.25L116.69-17.25Q115.74-17.25 114.71-16.65 113.69-16.05 113.01-15.1 112.34-14.15 112.34-13.15L112.34-13.15Q112.34-12.25 113.21-11.28 114.09-10.3 115.21-9.33 116.34-8.35 117.21-7.4 118.09-6.45 118.09-5.6L118.09-5.6 118.09-5.45Q118.09-4.2 116.99-3.13 115.89-2.05 114.24-1.25 112.59-0.45 110.91-0.03 109.24 0.4 108.14 0.4Z" opacity="1" transform="matrix(1,0,0,1,0,0)" fill="#000000" class="wordmark-text-0" data-fill-palette-color="primary" id="text-0"></path></svg></g></svg></g></svg></g></svg></g><g></g></svg></g></svg></g><defs></defs></svg><rect width="395.52" height="168.55287128712874" fill="none" stroke="none" visibility="hidden"></rect></g></svg></g></svg>